<svg xmlns="http://www.w3.org/2000/svg" xmlns:xlink="http://www.w3.org/1999/xlink" version="1.1" x="0px" y="0px" viewBox="0 0 81.817 162.0975" style="enable-background:new 0 0 81.817 129.678;" xml:space="preserve"><path d="M54.845,76.95c0-8.67,13.44-18.642,22.544-29.263c9.103-10.622,1.733-17.774-0.652-22.543  c-2.384-4.768-4.769-7.153-8.67-13.656c-3.901-6.503-4.862-7.642-8.237-8.236c-3.684-0.651-6.503,1.733-7.369,1.733  c-0.868,0-3.47-4.552-6.72-4.985c-2.819,0-8.021,1.084-9.539,4.118c-0.433,3.035-2.168-0.867-7.152-0.651  c-3.993,0.174-9.104,6.503-9.972,7.587c-0.866,1.083-9.754,3.468-10.837,4.552c-1.083,1.518-8.454,13.439-8.237,14.089  c0.216,0.65,1.951,8.454,1.951,17.124c0.433,8.67,7.37,19.725,10.405,32.081c2.433,9.905,1.661,39.446,1.259,50.777h45.116  C57.552,118.556,54.845,84.381,54.845,76.95z"/><text x="0" y="144.678" fill="#000000" font-size="5px" font-weight="bold" font-family="'Helvetica Neue', Helvetica, Arial-Unicode, Arial, Sans-serif">Created by Gan Khoon Lay</text><text x="0" y="149.678" fill="#000000" font-size="5px" font-weight="bold" font-family="'Helvetica Neue', Helvetica, Arial-Unicode, Arial, Sans-serif">from the Noun Project</text></svg>